<svg xmlns="http://www.w3.org/2000/svg" xmlns:xlink="http://www.w3.org/1999/xlink" preserveAspectRatio="xMidYMid" width="32" height="32" viewBox="0 0 32 32">
  <defs>
    <style>
      .cls-1 {
        fill: #0d0d0d;
        fill-rule: evenodd;
      }
    </style>
  </defs>
  <path d="M31.911,12.589 C31.261,14.694 30.152,16.511 28.523,18.140 C26.606,20.056 24.267,21.415 22.004,22.729 C19.870,23.968 17.854,25.138 16.307,26.685 C15.148,27.843 14.365,29.120 13.911,30.589 C13.813,30.905 13.641,31.187 13.415,31.413 C13.161,31.667 12.840,31.851 12.481,31.941 C11.800,32.109 11.082,31.909 10.585,31.413 L0.585,21.414 C0.061,20.888 -0.129,20.118 0.089,19.408 C0.739,17.302 1.848,15.488 3.477,13.857 C5.394,11.941 7.733,10.581 9.997,9.269 C12.130,8.030 14.146,6.859 15.694,5.312 C16.852,4.154 17.635,2.876 18.089,1.408 C18.187,1.093 18.359,0.812 18.585,0.585 C18.839,0.331 19.160,0.146 19.519,0.057 C20.200,-0.110 20.918,0.089 21.415,0.585 L31.415,10.585 C31.939,11.109 32.129,11.880 31.911,12.589 ZM19.999,1.999 C17.159,11.201 4.841,10.798 1.999,19.999 C5.312,23.310 8.688,26.687 12.000,29.999 C14.841,20.798 27.159,21.198 30.000,11.999 C26.688,8.687 23.312,5.310 19.999,1.999 ZM21.229,5.787 L20.545,6.723 C20.119,7.308 19.627,7.878 19.084,8.421 C18.520,8.985 17.912,9.493 17.286,9.974 L17.283,9.972 C17.083,10.155 16.775,10.151 16.582,9.958 C16.385,9.761 16.385,9.441 16.582,9.243 C16.618,9.206 16.659,9.181 16.701,9.157 C17.288,8.708 17.855,8.237 18.377,7.715 C18.883,7.209 19.341,6.677 19.737,6.134 L20.402,5.224 C20.425,5.181 20.453,5.138 20.489,5.100 C20.686,4.903 21.005,4.903 21.202,5.100 C21.390,5.289 21.397,5.585 21.227,5.784 L21.229,5.787 ZM16.373,12.859 C16.237,12.974 16.081,13.013 15.901,12.978 C15.723,12.942 15.530,12.897 15.319,12.845 C15.112,12.792 14.893,12.769 14.666,12.778 C14.440,12.786 14.206,12.897 13.963,13.117 C14.500,13.683 15.038,14.292 15.575,14.909 C15.915,14.746 16.253,14.603 16.588,14.472 C16.924,14.343 17.260,14.268 17.588,14.243 C17.920,14.220 18.248,14.257 18.577,14.349 C18.907,14.440 19.235,14.626 19.561,14.899 C19.846,15.136 20.045,15.382 20.157,15.669 C20.270,15.952 20.311,16.265 20.276,16.610 C20.241,16.954 20.135,17.325 19.957,17.710 C19.780,18.093 19.540,18.480 19.241,18.847 C19.416,19.003 19.592,19.152 19.768,19.292 C19.840,19.351 19.883,19.430 19.893,19.537 C19.905,19.640 19.873,19.739 19.799,19.829 C19.727,19.917 19.635,19.966 19.530,19.970 C19.420,19.978 19.331,19.946 19.256,19.882 C19.082,19.726 18.906,19.563 18.731,19.394 C18.370,19.757 18.002,20.001 17.631,20.136 C17.262,20.273 16.913,20.323 16.581,20.300 C16.248,20.279 15.948,20.198 15.680,20.071 C15.413,19.944 15.192,19.784 15.022,19.593 C14.854,19.402 14.768,19.212 14.768,19.027 C14.768,18.839 14.850,18.673 15.014,18.531 C15.174,18.394 15.319,18.327 15.456,18.330 C15.592,18.331 15.725,18.366 15.854,18.430 C15.985,18.495 16.116,18.574 16.248,18.665 C16.381,18.756 16.526,18.825 16.682,18.874 C16.838,18.921 17.010,18.925 17.203,18.884 C17.397,18.845 17.616,18.724 17.866,18.513 C17.275,17.884 16.683,17.206 16.092,16.524 C15.350,16.922 14.659,17.115 14.018,17.153 C13.375,17.191 12.821,17.025 12.350,16.635 C12.061,16.394 11.864,16.140 11.756,15.841 C11.649,15.544 11.612,15.224 11.651,14.874 C11.688,14.526 11.788,14.169 11.956,13.808 C12.122,13.448 12.332,13.107 12.588,12.798 C12.523,12.741 12.458,12.687 12.393,12.632 C12.319,12.569 12.276,12.488 12.266,12.380 C12.252,12.276 12.286,12.179 12.358,12.095 C12.432,12.009 12.522,11.962 12.631,11.962 C12.739,11.960 12.829,11.995 12.901,12.062 C12.966,12.122 13.031,12.183 13.096,12.246 C13.266,12.078 13.495,11.905 13.780,11.738 C14.065,11.570 14.366,11.451 14.682,11.378 C15.002,11.308 15.311,11.304 15.612,11.357 C15.916,11.411 16.170,11.558 16.381,11.800 C16.545,11.988 16.620,12.179 16.610,12.376 C16.598,12.572 16.518,12.734 16.373,12.859 ZM18.373,18.023 C18.495,17.894 18.598,17.746 18.688,17.579 C18.780,17.411 18.838,17.245 18.868,17.080 C18.895,16.913 18.893,16.751 18.854,16.591 C18.819,16.433 18.729,16.286 18.588,16.146 C18.446,16.008 18.291,15.919 18.129,15.879 C17.965,15.839 17.801,15.831 17.635,15.857 C17.473,15.884 17.311,15.929 17.149,15.998 C16.987,16.066 16.836,16.132 16.694,16.196 C17.253,16.835 17.814,17.456 18.373,18.023 ZM13.452,13.613 C13.311,13.765 13.202,13.923 13.127,14.081 C13.049,14.239 13.004,14.396 12.991,14.546 C12.975,14.698 12.989,14.837 13.030,14.964 C13.069,15.091 13.133,15.199 13.225,15.286 C13.441,15.496 13.688,15.589 13.971,15.577 C14.254,15.565 14.588,15.453 14.971,15.242 C14.464,14.669 13.958,14.117 13.452,13.613 ZM14.715,22.179 L14.717,22.179 C14.914,22.021 15.204,22.029 15.386,22.212 C15.582,22.407 15.582,22.726 15.386,22.922 C15.371,22.937 15.353,22.948 15.335,22.962 L15.337,22.964 C14.705,23.444 14.184,23.878 13.623,24.439 C13.117,24.945 12.659,25.477 12.262,26.018 L11.623,26.894 C11.603,26.929 11.580,26.963 11.549,26.993 C11.353,27.189 11.035,27.189 10.839,26.993 C10.669,26.824 10.648,26.562 10.773,26.366 L10.771,26.364 L11.455,25.431 C11.881,24.846 12.373,24.275 12.916,23.732 C13.480,23.166 14.090,22.660 14.715,22.179 Z" class="cls-1"/>
</svg>
