<svg xmlns="http://www.w3.org/2000/svg" xmlns:xlink="http://www.w3.org/1999/xlink" preserveAspectRatio="xMidYMid" width="28" height="32" viewBox="0 0 28 32">
  <defs>
    <style>
      .cls-1 {
        fill: #fff;
        fill-rule: evenodd;
      }
    </style>
  </defs>
  <path d="M26.112,5.022 L24.897,1.365 C24.625,0.550 23.861,-0.001 23.000,-0.001 L5.000,-0.001 C4.139,-0.001 3.375,0.550 3.102,1.365 L1.878,5.023 C0.834,5.091 -0.000,5.938 -0.000,6.999 L-0.000,9.999 C-0.000,11.103 0.895,11.999 2.000,11.999 L3.034,11.999 C3.034,12.074 3.004,12.144 3.013,12.219 L5.013,30.220 C5.125,31.232 5.980,31.999 7.000,31.999 L21.000,31.999 C22.019,31.999 22.875,31.232 22.987,30.220 L24.987,12.219 C24.996,12.144 24.966,12.074 24.966,11.999 L26.000,11.999 C27.105,11.999 28.000,11.103 28.000,9.999 L28.000,6.999 C28.000,5.934 27.161,5.083 26.112,5.022 ZM5.000,1.998 L23.000,1.998 L24.000,4.999 L4.000,4.999 L5.000,1.998 ZM7.000,29.999 L6.667,27.000 L21.333,27.000 L21.000,29.999 L7.000,29.999 ZM21.444,25.999 L6.556,25.999 L5.444,15.999 L22.556,15.999 L21.444,25.999 ZM22.667,14.999 L5.333,14.999 L5.000,11.999 L23.000,11.999 L22.667,14.999 ZM26.000,9.999 L2.000,9.999 L2.000,6.999 L26.000,6.999 L26.000,9.999 Z" class="cls-1"/>
</svg>
