<svg xmlns="http://www.w3.org/2000/svg" xmlns:xlink="http://www.w3.org/1999/xlink" preserveAspectRatio="xMidYMid" width="32" height="32" viewBox="0 0 32 32">
  <defs>
    <style>
      .cls-1 {
        fill: #fff;
        fill-rule: evenodd;
      }
    </style>
  </defs>
  <path d="M31.986,14.406 L31.975,14.615 C31.946,15.354 31.688,16.156 31.121,16.790 C31.501,17.496 31.645,18.341 31.511,19.164 C31.293,20.489 30.777,21.358 30.174,21.929 C30.435,22.569 30.549,23.464 30.173,24.655 C29.947,25.381 29.602,26.498 28.528,27.236 C28.698,27.892 28.645,28.538 28.505,28.995 C28.317,29.603 28.087,30.052 28.076,30.071 C27.361,31.359 26.161,31.999 24.494,31.999 L19.028,31.999 C16.246,31.999 13.563,31.427 13.055,31.311 C10.685,30.767 9.576,30.501 9.000,30.359 C8.981,30.353 8.972,30.351 8.954,30.347 C8.858,30.321 8.781,30.302 8.715,30.284 C8.701,30.283 8.680,30.277 8.668,30.273 C8.185,31.281 7.190,31.999 6.000,31.999 L3.000,31.999 C1.346,31.999 -0.000,30.654 -0.000,28.999 L-0.000,12.999 C-0.000,11.345 1.346,9.999 3.000,9.999 L6.000,9.999 C6.747,9.999 7.475,10.345 8.000,10.798 L7.947,10.754 C8.050,10.708 8.754,10.361 9.000,10.231 C12.355,8.468 12.978,4.990 13.000,2.976 C13.020,1.334 14.367,-0.001 16.000,-0.001 C18.312,-0.001 20.926,3.159 20.926,6.748 C20.926,8.249 20.880,9.095 20.676,10.033 C24.975,10.146 27.915,10.142 29.164,10.471 C31.126,11.031 32.000,12.642 32.000,13.905 C32.000,14.193 31.994,14.274 31.986,14.406 ZM7.000,12.999 C7.000,12.445 6.553,11.998 6.000,11.998 L3.000,11.998 C2.447,11.998 2.000,12.445 2.000,12.999 L2.000,28.999 C2.000,29.552 2.447,29.999 3.000,29.999 L6.000,29.999 C6.553,29.999 7.000,29.552 7.000,28.999 L7.000,12.999 ZM28.812,12.373 C27.930,12.142 28.000,11.998 18.000,11.998 C18.831,9.527 18.926,9.118 18.926,6.748 C18.926,4.121 17.058,1.998 16.000,1.998 C15.375,1.998 15.006,2.520 15.000,2.998 C14.959,6.405 13.568,10.553 9.000,12.445 C8.940,12.470 8.855,12.496 8.794,12.520 C8.299,12.670 8.000,13.093 8.000,13.562 L8.008,27.375 C8.008,28.113 8.853,28.255 8.853,28.255 C9.114,28.329 9.333,28.403 13.487,29.361 C13.558,29.376 16.281,29.999 19.028,29.999 L24.494,29.999 C25.525,29.999 26.012,29.671 26.314,29.126 C26.321,29.113 26.469,28.812 26.594,28.405 C26.708,28.034 26.656,27.000 25.562,27.000 C24.687,27.000 23.994,27.000 23.994,27.000 C23.718,27.000 23.494,26.774 23.494,26.499 C23.494,26.222 23.718,25.999 23.994,25.999 C23.994,25.999 24.906,25.999 25.626,25.999 C27.752,25.999 27.947,25.064 28.266,24.054 C28.509,23.286 28.656,21.999 26.969,21.999 C26.188,21.999 25.000,21.999 25.000,21.999 C24.724,21.999 24.500,21.775 24.500,21.498 C24.500,21.222 24.724,20.999 25.000,20.999 C25.000,20.999 25.687,20.999 27.376,20.999 C29.064,20.999 29.415,19.589 29.537,18.843 C29.635,18.243 29.437,16.998 27.937,16.998 C26.437,16.998 26.000,16.998 26.000,16.998 C25.724,16.998 25.500,16.775 25.500,16.499 C25.500,16.222 25.724,15.998 26.000,15.998 C26.000,15.998 26.500,15.998 28.000,15.998 C29.750,15.998 29.957,15.028 29.978,14.533 C29.990,14.197 30.000,14.247 30.000,13.905 C30.000,13.592 29.906,12.686 28.812,12.373 ZM4.500,28.999 C3.672,28.999 3.000,28.327 3.000,27.499 C3.000,26.670 3.672,25.999 4.500,25.999 C5.328,25.999 6.000,26.670 6.000,27.499 C6.000,28.327 5.328,28.999 4.500,28.999 ZM4.500,27.000 C4.225,27.000 4.000,27.224 4.000,27.499 C4.000,27.774 4.225,27.999 4.500,27.999 C4.775,27.999 5.000,27.774 5.000,27.499 C5.000,27.224 4.775,27.000 4.500,27.000 Z" class="cls-1"/>
</svg>
