<svg xmlns="http://www.w3.org/2000/svg" xmlns:xlink="http://www.w3.org/1999/xlink" preserveAspectRatio="xMidYMid" width="32" height="28" viewBox="0 0 32 28">
  <defs>
    <style>
      .cls-1 {
        fill: #f39c12;
        fill-rule: evenodd;
      }
    </style>
  </defs>
  <path d="M28.000,27.999 L4.000,27.999 C1.791,27.999 -0.000,26.208 -0.000,23.999 L-0.000,16.999 C-0.000,16.821 0.025,16.637 0.076,16.454 L4.078,1.449 C4.320,0.596 5.110,-0.002 6.000,-0.002 L16.000,-0.002 L26.000,-0.002 C26.890,-0.002 27.680,0.596 27.922,1.449 L31.924,16.454 C31.975,16.637 32.000,16.821 32.000,16.999 L32.000,23.999 C32.000,26.208 30.209,27.999 28.000,27.999 ZM30.000,16.999 L25.999,1.997 L6.001,1.997 L2.000,16.999 L2.000,23.999 C2.000,25.101 2.897,25.999 4.000,25.999 L28.000,25.999 C29.102,25.999 30.000,25.101 30.000,23.999 L30.000,16.999 ZM27.187,17.998 L24.281,17.998 L23.140,17.998 L22.619,17.998 L21.172,20.894 C20.833,21.572 20.141,21.998 19.383,21.998 L12.617,21.998 C11.859,21.998 11.167,21.572 10.828,20.894 L9.381,17.998 L8.859,17.998 L7.719,17.998 L4.812,17.998 C4.502,17.998 4.209,17.854 4.019,17.609 C3.830,17.362 3.767,17.042 3.846,16.742 L7.291,4.743 C7.408,4.303 7.805,4.000 8.258,4.000 L23.742,4.000 C24.195,4.000 24.592,4.303 24.709,4.743 L28.154,16.742 C28.233,17.042 28.170,17.362 27.980,17.609 C27.791,17.854 27.498,17.998 27.187,17.998 ZM23.742,4.999 L8.258,4.999 L5.334,15.999 L7.719,15.999 L9.381,15.999 C10.143,15.999 10.828,16.421 11.170,17.104 L12.617,19.999 L19.383,19.999 L20.830,17.104 C21.172,16.421 21.857,15.999 22.619,15.999 L24.281,15.999 L26.666,15.999 L23.742,4.999 Z" class="cls-1"/>
</svg>
