<svg xmlns="http://www.w3.org/2000/svg" xmlns:xlink="http://www.w3.org/1999/xlink" preserveAspectRatio="xMidYMid" width="32" height="32" viewBox="0 0 32 32">
  <defs>
    <style>
      .cls-1 {
        fill: #fff;
        fill-rule: evenodd;
      }
    </style>
  </defs>
  <path d="M31.109,28.335 C30.909,28.202 27.262,25.810 21.837,24.636 C23.827,22.113 25.104,18.723 25.647,16.467 C26.400,13.338 26.108,7.218 23.104,3.405 C21.349,1.177 18.891,-0.001 16.000,-0.001 C13.108,-0.001 10.651,1.177 8.895,3.405 C5.892,7.218 5.600,13.338 6.352,16.467 C6.896,18.723 8.173,22.113 10.163,24.636 C4.738,25.810 1.091,28.202 0.891,28.335 C0.157,28.823 -0.170,29.735 0.086,30.578 C0.341,31.421 1.119,31.999 2.000,31.999 L30.000,31.999 C30.881,31.999 31.659,31.421 31.914,30.578 C32.170,29.735 31.843,28.823 31.109,28.335 ZM20.266,23.397 L19.939,23.812 C17.555,26.552 14.445,26.552 12.060,23.812 L11.733,23.397 C8.948,19.867 7.566,15.201 8.161,10.748 C8.707,6.469 11.159,1.998 16.000,1.998 C20.841,1.998 23.293,6.469 23.839,10.748 C24.431,15.203 23.054,19.867 20.266,23.397 ZM2.000,29.999 C2.138,29.907 5.526,27.685 10.586,26.591 L13.070,26.053 C13.956,26.636 14.930,27.000 16.000,27.000 C17.070,27.000 18.044,26.636 18.930,26.053 L21.414,26.591 C26.435,27.677 29.810,29.873 30.000,29.999 L2.000,29.999 Z" class="cls-1"/>
</svg>
