<svg xmlns="http://www.w3.org/2000/svg" xmlns:xlink="http://www.w3.org/1999/xlink" preserveAspectRatio="xMidYMid" width="7.5" height="16.03" viewBox="0 0 7.5 16.03">
  <defs>
    <style>
      .cls-1 {
        fill: #95e1d3;
        fill-rule: evenodd;
      }
    </style>
  </defs>
  <path d="M7.493,0.015 C7.493,0.937 7.493,2.590 7.493,2.590 C7.493,2.590 5.595,2.401 5.119,3.128 C4.859,3.527 5.014,4.691 4.991,5.527 C5.819,5.527 6.680,5.527 7.509,5.527 C7.296,6.505 7.144,7.167 6.987,8.014 C6.270,8.014 4.977,8.014 4.977,8.014 L4.977,16.016 C4.977,16.016 2.604,16.016 1.488,16.016 C1.489,13.549 1.487,10.671 1.488,8.045 C0.946,8.045 0.545,8.045 0.004,8.045 C0.004,7.122 0.004,6.450 0.004,5.527 C0.529,5.527 0.946,5.527 1.472,5.527 C1.547,3.686 1.575,1.862 2.490,0.933 C3.518,-0.111 4.498,0.015 7.493,0.015 Z" class="cls-1"/>
</svg>
